<svg xmlns="http://www.w3.org/2000/svg" width="32" height="32" viewBox="0 0 32 32" shape-rendering="crispEdges">
  <path d="M5 3h7v2h2v10h-2v3h4v3h2v10H1V21h2v-3h3v-3H3V5h2z" fill="#172a40"/><rect x="5" y="6" width="7" height="8" fill="#e8b48a"/><rect x="5" y="6" width="7" height="2" fill="#efb84b"/><rect x="7" y="10" width="2" height="2" fill="#172a40"/><rect x="4" y="20" width="10" height="9" fill="#dc783d"/><rect x="6" y="20" width="3" height="9" fill="#efb84b"/><path d="M21 3h7v2h2v10h-2v3h3v13H17V21h2v-3h3v-3h-3V5h2z" fill="#172a40"/><rect x="21" y="6" width="7" height="8" fill="#c6a084"/><rect x="21" y="6" width="7" height="2" fill="#42c9e5"/><rect x="23" y="10" width="2" height="2" fill="#172a40"/><rect x="20" y="20" width="9" height="9" fill="#348ba6"/><rect x="22" y="20" width="3" height="9" fill="#42c9e5"/>
</svg>
