<svg xmlns="http://www.w3.org/2000/svg" width="32" height="32" viewBox="0 0 32 32" shape-rendering="crispEdges">
  <rect x="12" y="2" width="8" height="5" fill="#172a40"/><rect x="13" y="3" width="6" height="3" fill="#c98b5a"/><path d="M11 6h10v6h4v4h2v12h-3v2H8v-2H5V16h2v-4h4z" fill="#172a40"/><path d="M13 8h6v6h4v4h2v8h-3v2H10v-2H7v-8h2v-4h4z" fill="#c6e3ec"/><path d="M9 19h14v7h-3v2h-8v-2H9z" fill="#7f55bd"/><rect x="10" y="20" width="3" height="5" fill="#c29be6"/><rect x="10" y="14" width="3" height="4" fill="#f0fbff"/><rect x="17" y="22" width="3" height="2" fill="#a279d2"/>
</svg>
